<?xml version="1.0" encoding="iso-8859-1"?>
<!-- Generator: Adobe Illustrator 16.0.0, SVG Export Plug-In . SVG Version: 6.00 Build 0)  -->
<!DOCTYPE svg PUBLIC "-//W3C//DTD SVG 1.1//EN" "http://www.w3.org/Graphics/SVG/1.1/DTD/svg11.dtd">
<svg version="1.1" id="Capa_1" xmlns="http://www.w3.org/2000/svg" xmlns:xlink="http://www.w3.org/1999/xlink" x="0px" y="0px"
	 width="612px" height="612px" viewBox="0 0 612 612" style="enable-background:new 0 0 612 612;" xml:space="preserve">
<g>
	<g>
		<ellipse cx="166.909" cy="83.455" rx="27.818" ry="55.636"/>
		<path d="M111.273,83.455H27.874C12.212,83.455,0,95.833,0,111.078V556.53c0,15.272,12.49,27.651,27.874,27.651h556.225
			c15.689,0,27.901-12.379,27.901-27.623v-445.48c0-15.245-12.49-27.624-27.874-27.624h-83.398
			c0,46.095-24.897,83.455-55.637,83.455s-55.637-37.36-55.637-83.455h-27.817c0,46.095-24.926,83.455-55.637,83.455
			c-30.739,0-55.636-37.36-55.636-83.455h-27.818c0,46.095-24.897,83.455-55.636,83.455
			C136.17,166.909,111.273,129.549,111.273,83.455z M139.091,228.109c0-3.087,2.726-5.563,6.092-5.563h321.662
			c3.366,0,6.064,2.503,6.064,5.563V244.8c0,3.088-2.727,5.564-6.092,5.564H145.183c-3.422,0-6.092-2.476-6.092-5.564V228.109z
			 M139.091,339.382c0-3.088,2.726-5.563,6.092-5.563h321.662c3.366,0,6.064,2.504,6.064,5.563v16.69
			c0,3.088-2.727,5.564-6.092,5.564H145.183c-3.422,0-6.092-2.477-6.092-5.564V339.382z M139.091,450.654
			c0-3.088,2.726-5.563,6.092-5.563h321.662c3.366,0,6.064,2.504,6.064,5.563v16.691c0,3.088-2.727,5.563-6.092,5.563H145.183
			c-3.422,0-6.092-2.504-6.092-5.563V450.654z"/>
		<ellipse cx="445.091" cy="83.455" rx="27.818" ry="55.636"/>
		<ellipse cx="306" cy="83.455" rx="27.818" ry="55.636"/>
	</g>
</g>
<g>
</g>
<g>
</g>
<g>
</g>
<g>
</g>
<g>
</g>
<g>
</g>
<g>
</g>
<g>
</g>
<g>
</g>
<g>
</g>
<g>
</g>
<g>
</g>
<g>
</g>
<g>
</g>
<g>
</g>
</svg>
